<?xml version="1.0" encoding="UTF-8" standalone="no"?>
<!-- Generator: Adobe Illustrator 16.0.0, SVG Export Plug-In . SVG Version: 6.00 Build 0)  -->

<svg
   xmlns:dc="http://purl.org/dc/elements/1.1/"
   xmlns:cc="http://creativecommons.org/ns#"
   xmlns:rdf="http://www.w3.org/1999/02/22-rdf-syntax-ns#"
   xmlns:svg="http://www.w3.org/2000/svg"
   xmlns="http://www.w3.org/2000/svg"
   xmlns:sodipodi="http://sodipodi.sourceforge.net/DTD/sodipodi-0.dtd"
   xmlns:inkscape="http://www.inkscape.org/namespaces/inkscape"
   version="1.1"
   id="Layer_1"
   x="0px"
   y="0px"
   width="109.656px"
   height="41.5px"
   viewBox="0 0 109.656 41.5"
   enable-background="new 0 0 109.656 41.5"
   xml:space="preserve"
   sodipodi:docname="logo (3).svg"
   inkscape:version="0.92.4 (5da689c313, 2019-01-14)"><metadata
   id="metadata23"><rdf:RDF><cc:Work
       rdf:about=""><dc:format>image/svg+xml</dc:format><dc:type
         rdf:resource="http://purl.org/dc/dcmitype/StillImage" /></cc:Work></rdf:RDF></metadata><defs
   id="defs21" /><sodipodi:namedview
   pagecolor="#ffffff"
   bordercolor="#666666"
   borderopacity="1"
   objecttolerance="10"
   gridtolerance="10"
   guidetolerance="10"
   inkscape:pageopacity="0"
   inkscape:pageshadow="2"
   inkscape:window-width="1920"
   inkscape:window-height="1017"
   id="namedview19"
   showgrid="false"
   inkscape:zoom="3.1826804"
   inkscape:cx="-3.1420064"
   inkscape:cy="20.75"
   inkscape:window-x="1912"
   inkscape:window-y="-8"
   inkscape:window-maximized="1"
   inkscape:current-layer="Layer_1" />

<g
   id="Layer_2"
   data-name="Layer 2"
   transform="matrix(0.34803233,0,0,0.34803233,7.6034923,2.4678617)"><g
     id="Layer_1-2"
     data-name="Layer 1"><polygon
       points="129.06,19.27 129.06,22.79 138.79,22.79 138.79,47.64 142.81,47.64 142.81,22.79 152.54,22.79 152.54,19.27 "
       id="polygon2" /><path
       inkscape:connector-curvature="0"
       d="m 160.5,19.27 -12.85,28.37 h 4.18 l 3.11,-7.09 H 170 l 3.12,7.09 h 4.26 l -12.9,-28.37 z m -4.13,18 6.12,-13.93 6.12,13.93 z"
       id="path4" /><polygon
       points="199.94,47.64 204.68,47.64 191.8,32.05 203.91,19.27 199.29,19.27 183.88,35.14 183.88,19.27 179.83,19.27 179.83,47.64 183.88,47.64 183.88,40.3 189.09,35.02 "
       id="polygon6" /><polygon
       points="227.77,47.64 227.77,44.12 211.23,44.12 211.23,34.95 225.46,34.95 225.46,31.51 211.23,31.51 211.23,22.79 227.21,22.79 227.21,19.27 207.18,19.27 207.18,47.64 "
       id="polygon8" /><rect
       x="240.33"
       y="19.27"
       width="4.0500002"
       height="28.379999"
       id="rect10" /><polygon
       points="257.63,22.79 257.63,47.64 261.65,47.64 261.65,22.79 271.38,22.79 271.38,19.27 247.9,19.27 247.9,22.79 "
       id="polygon12" /><polygon
       points="153.01,85.5 153.01,81.98 136.47,81.98 136.47,72.82 150.7,72.82 150.7,69.37 136.47,69.37 136.47,60.65 152.44,60.65 152.44,57.13 132.42,57.13 132.42,85.5 "
       id="polygon14" /><path
       inkscape:connector-curvature="0"
       d="M 168.13,57.13 155.28,85.5 h 4.18 l 3.11,-7.09 h 15.09 l 3.12,7.09 H 185 L 172.1,57.13 Z m -4.13,18 6.12,-13.93 6.12,13.93 z"
       id="path16" /><path
       inkscape:connector-curvature="0"
       d="m 204.23,71.84 a 16.74,16.74 0 0 0 -3.37,-1.38 c -1.23,-0.35 -2.45,-0.66 -3.67,-0.95 a 32.91,32.91 0 0 1 -3.34,-1 6.91,6.91 0 0 1 -2.48,-1.42 3.13,3.13 0 0 1 -1,-2.39 3.87,3.87 0 0 1 0.71,-2.27 4.7,4.7 0 0 1 2.25,-1.62 10.74,10.74 0 0 1 3.93,-0.61 15,15 0 0 1 3.94,0.55 13,13 0 0 1 3.85,1.76 l 1.33,-3.24 a 13.63,13.63 0 0 0 -4.21,-1.87 19.09,19.09 0 0 0 -4.91,-0.65 14.59,14.59 0 0 0 -6.14,1.12 8,8 0 0 0 -3.57,3 7.44,7.44 0 0 0 -1.15,4 6.74,6.74 0 0 0 0.93,3.71 6.9,6.9 0 0 0 2.45,2.29 16.77,16.77 0 0 0 3.37,1.4 c 1.23,0.36 2.45,0.68 3.67,1 a 28.44,28.44 0 0 1 3.34,0.95 7.1,7.1 0 0 1 2.47,1.44 3.07,3.07 0 0 1 1,2.35 3.74,3.74 0 0 1 -0.73,2.25 4.78,4.78 0 0 1 -2.27,1.57 12.1,12.1 0 0 1 -4,0.56 15,15 0 0 1 -5.23,-0.93 13.08,13.08 0 0 1 -4.13,-2.35 l -1.5,3.16 a 12.56,12.56 0 0 0 4.66,2.57 19.13,19.13 0 0 0 6.2,1 14.9,14.9 0 0 0 6.19,-1.12 8.09,8.09 0 0 0 3.62,-3 7.22,7.22 0 0 0 1.18,-4 6.57,6.57 0 0 0 -0.93,-3.65 7,7 0 0 0 -2.46,-2.23 z"
       id="path18" /><polygon
       points="234.16,57.13 230.14,57.13 221.03,72.1 211.94,57.13 207.6,57.13 218.87,75.62 218.87,85.5 222.89,85.5 222.89,75.69 "
       id="polygon20" /><path
       inkscape:connector-curvature="0"
       d="m 23.75,70.09 a 3.22,3.22 0 1 0 4.55,0 3.22,3.22 0 0 0 -4.55,0 z"
       id="path22" /><path
       inkscape:connector-curvature="0"
       d="m 84.09,17.46 -26,26 L 79,64.4 a 7.68,7.68 0 1 1 -3.15,3.15 L 54.91,46.64 51.76,43.48 80.93,14.31 66.63,0 14.08,14.08 0,66.63 3.28,69.9 49.59,23.59 a 7.68,7.68 0 1 1 3.16,3.15 l -46.32,46.32 32,32 41.05,-11 -36,-36 -10.69,10.69 A 7.68,7.68 0 1 1 29.64,65.6 l 13.84,-13.84 41,41 L 91,91 105.1,38.47 Z"
       id="path24" /><path
       inkscape:connector-curvature="0"
       d="m 84.87,73.45 a 3.22,3.22 0 1 0 -4.55,0 3.21,3.21 0 0 0 4.55,0 z"
       id="path26" /><path
       inkscape:connector-curvature="0"
       d="m 58.64,22.24 a 3.22,3.22 0 1 0 -4.55,0 3.22,3.22 0 0 0 4.55,0 z"
       id="path28" /></g></g></svg>